# xmcd
#
# Track frame offsets: 
#        150
#        20515
#        42073
#        56952
#        75456
#        90346
#        111828
#
# Disc length: 1711 seconds
#
# Revision: 0
# Processed by: cddbd v1.5.2PL0 Copyright (c) Steve Scherf et al.
# Submitted via: ExactAudioCopy v1.2
#
DISCID=4b06ad07
DTITLE=Claudette King - Good Ole Bluz
DYEAR=2018
DGENRE=Blues
TTITLE0=Playing With My Friends (Feat. B.B. King)
TTITLE1=Stormy
TTITLE2=Good Ole Bluz
TTITLE3=Love
TTITLE4=Isn't Peace
TTITLE5=Making Love
TTITLE6=Walk Me To My Car
EXTD=
EXTT0=
EXTT1=
EXTT2=
EXTT3=
EXTT4=
EXTT5=
EXTT6=
PLAYORDER=
